# xmcd
#
# Track frame offsets:
#  150
#  10389
#  21110
#  32964
#  45465
#  58360
#  69310
#  79014
#  88330
#  99465
#  110468
#  118868
#  127074
#  136182
#  148705
#  159355
#  170644
#  181338
#  192855
#  204343
#  215899
#  225255
#  237253
#  247572
#  258339
#
# Disc length: 3570 seconds
#
# Revision: 0
# Processed by: cddbd v1.5.1PL2 Copyright (c) Steve Scherf et al.
# Submitted via: Collectorz.com_Music_Collector 6.9
#
DISCID=5d0df019
DTITLE=Various Artist - Doo-Bop-Jivers - Volume 04
DYEAR=1996
DGENRE=Doo-Wop
TTITLE0=Four Tunes, The - Marie
TTITLE1=Deep River Boys, The - Oh! Well A Whatcha Gonna Do
TTITLE2=Baker, Oscar and Jeanette - Hey Girl, Hey Boy
TTITLE3=Flying Platters, The - Don't Let Go
TTITLE4=Brooks Brothers, The - Palm Jivin' Boogie
TTITLE5=Gaylords, The - Plantation Boogie
TTITLE6=Mark IV, The - 45 RPM
TTITLE7=Five Stars, The - Pickin' On the Wrong Chicken
TTITLE8=Tyrones, The - Blast Off
TTITLE9=Four Aces, The - Saturday Swing Out
TTITLE10=Burton Brothers, The - Ooba Ooba Ooba
TTITLE11=Don, Dick and Jimmy - Too Young To Bop
TTITLE12=Four Counts, The - Three Little Chickens
TTITLE13=Twin Tones, The - Before You Go
TTITLE14=Four Counts, The - Rock 'n' Roll Is Good For The Soul
TTITLE15=Jarmels, The - Little Lonely Ones
TTITLE16=Ovations, The - I Believe I'll Go back Home
TTITLE17=Neptunes, The - House Of Heartaches
TTITLE18=Flames, The - Drop Me A Line
TTITLE19=Drifters, The - Nobody But Me
TTITLE20=Shells, The - A Toast To Your Holiday
TTITLE21=Caravelles, The - Pink Lips
TTITLE22=Emotions, The - A Story Untold
TTITLE23=Fortune Tellers, The - School Prom
TTITLE24=Twiliters, The - Hey There
EXTD=
EXTT0=
EXTT1=
EXTT2=
EXTT3=
EXTT4=
EXTT5=
EXTT6=
EXTT7=
EXTT8=
EXTT9=
EXTT10=
EXTT11=
EXTT12=
EXTT13=
EXTT14=
EXTT15=
EXTT16=
EXTT17=
EXTT18=
EXTT19=
EXTT20=
EXTT21=
EXTT22=
EXTT23=
EXTT24=
PLAYORDER=
